<?xml version="1.0" encoding="utf-8"?>
<!-- Generator: Adobe Illustrator 26.3.1, SVG Export Plug-In . SVG Version: 6.00 Build 0)  -->
<svg version="1.1" id="Layer_1" xmlns="http://www.w3.org/2000/svg" xmlns:xlink="http://www.w3.org/1999/xlink" x="0px" y="0px"
	 viewBox="0 0 102.7 120.2" style="enable-background:new 0 0 102.7 120.2;" xml:space="preserve">
<style type="text/css">
	.st0{fill:#ECE9E3;}
</style>
<g id="XMLID_00000025413290299083445510000002438382479080350358_">
	<g id="XMLID_00000123430423458076031860000012035146798514418362_">
		<g>
			<path class="st0" d="M66.1,87.3H1.6L50.7-0.5l27.5,49l14.9-26.1l7.6,4.3L80.5,62.3L66.1,87.3z M5.8,84.8h58.8l16-28l16.6-29.1
				l-3.2-1.9L78.2,53.6l-27.5-49L5.8,84.8z M62.4,81H12.2l38.5-68.8L76,57.4L75,59.2L62.4,81z M16.4,78.5H61l12.2-21.2l-22.5-40
				L16.4,78.5z"/>
		</g>
	</g>
	<g id="XMLID_00000045603920845334488760000017117958221431064485_">
		<g>
			<path class="st0" d="M58.5,119.8l-7.6-4.3l32.8-57.1l16.1,29H77.1L58.5,119.8z M54.3,114.5l3.2,1.9l18.1-31.5h19.9L83.7,63.4
				L54.3,114.5z M89.2,81.2H77.8l5.8-10.1L89.2,81.2z M82.2,78.7H85l-1.4-2.5L82.2,78.7z"/>
		</g>
	</g>
</g>
</svg>
